<?xml version="1.0" encoding="utf-8"?>
<!-- Generator: Adobe Illustrator 16.0.0, SVG Export Plug-In . SVG Version: 6.00 Build 0)  -->
<!DOCTYPE svg PUBLIC "-//W3C//DTD SVG 1.1//EN" "http://www.w3.org/Graphics/SVG/1.1/DTD/svg11.dtd">
<svg version="1.1" id="Layer_1" xmlns="http://www.w3.org/2000/svg" xmlns:xlink="http://www.w3.org/1999/xlink" x="0px" y="0px"
	 width="210px" height="210px" viewBox="0 0 210 210" enable-background="new 0 0 210 210" xml:space="preserve">
<g>
	<g>
		<g>
			<circle fill="#F4983B" cx="105" cy="105.001" r="97.74"/>
			<path fill="#B06027" d="M102.881,202.714c0.703,0.014,1.41,0.025,2.117,0.025c51.949,0,94.428-40.531,97.551-91.695
				l-53.604-43.167l-24.408,19.069l-9.852,22.34l-11.813,19.51H83.352l-34.188,1.846l-30.359,7.73L102.881,202.714z"/>
			<g>
				<g>
					<path fill="#DEDEDD" d="M95.314,135.983c0,0-12.793-9.35-35.641-6.721c-22.85,2.629-29.672,5.529-37.686,6.721
						c0,0,7.674,1.025,18.588-1.021c10.912-2.047,40.242-6.992,53.543,1.279l2.387-0.258"/>
					<polygon fill="#3A3B3B" points="112.068,136.78 21.988,136.78 37.904,124.503 112.068,124.503 					"/>
					<path fill="#3282C5" d="M97.928,136.78v3.592l-79.123-2c0,0,16.826-13.869,19.1-13.869L21.988,136.78H97.928z"/>
					<polygon fill="#3A3B3B" points="112.068,136.78 188.01,136.78 172.094,124.503 97.928,124.503 					"/>
					<path fill="#3282C5" d="M112.068,136.78v3.592l79.125-2c0,0-16.824-13.869-19.1-13.869l15.916,12.277H112.068z"/>
					<path fill="#3282C5" d="M95.314,136.78c0,0,1.705,7.344,9.32,7.344s10.344-7.344,10.344-7.344H95.314z"/>
					<path fill="#3A3B3B" d="M95.314,135.983c0,0,4.203,3.867,9.887,3.867c5.686,0,9.484-3.867,9.484-3.867H95.314z"/>
				</g>
				<path fill="#EFF4F2" d="M189.359,128.796l-2.746-3.139c-13.662-1.609-37.668-1.77-37.668-1.77c21.602-2.35,39.266,0,39.266,0
					c-1.938-8.012-7.105-10.316-7.105-10.316c-44.055,3.807-54.496,11.473-54.496,11.473c18.25-15.895,57.488-14.816,57.488-14.816
					c-9.145-24.417-22.635-28.164-22.635-28.164c-22.684,12.627-46.625,42.439-46.625,42.439
					c21.297-33.652,47.516-46.486,47.516-46.486l-8.695-1.895c-26.025,20.756-38.82,42.271-38.82,42.271
					c10.338-23.144,39.938-46.058,39.938-46.058l-5.145-0.805c-13.064,9.643-30.168,33.98-30.168,33.98
					c9.965-19.009,29.482-37.634,29.482-37.634H136.6c-25.338,15.498-30.309,51.267-30.928,56.722
					c-0.617-5.455-5.588-41.224-30.926-56.722H62.398c0,0,19.518,18.625,29.482,37.634c0,0-17.104-24.337-30.166-33.98l-5.146,0.805
					c0,0,29.6,22.914,39.938,46.058c0,0-12.795-21.515-38.82-42.271l-8.693,1.895c0,0,26.215,12.834,47.514,46.486
					c0,0-23.941-29.812-46.625-42.439c0,0-13.488,3.746-22.633,28.164c0,0,38.646,3.344,55.121,14.637
					c0,0-25.662-10.92-52.129-11.293c0,0-5.168,2.305-7.107,10.316c0,0,17.666-2.35,39.266,0c0,0-24.006,0.16-37.668,1.77
					l-2.742,3.139l8.477-1.641l-8.189,8.279c0,0,12.486,0.496,23.801-1.99s40.143-7.174,50.959,1.99h16.244
					c10.816-9.164,40.676-4.477,51.99-1.99s23.801,1.99,23.801,1.99l-8.191-8.279L189.359,128.796z"/>
			</g>
		</g>
	</g>
</g>
</svg>
